<?xml version="1.0" standalone="no"?><!DOCTYPE svg PUBLIC "-//W3C//DTD SVG 1.1//EN" "http://www.w3.org/Graphics/SVG/1.1/DTD/svg11.dtd"><svg t="1614133331031" class="icon" viewBox="0 0 1024 1024" version="1.1" xmlns="http://www.w3.org/2000/svg" p-id="5564" xmlns:xlink="http://www.w3.org/1999/xlink" width="32" height="32"><defs><style type="text/css"></style></defs><path d="M509.61892144 569.05495387a57.05116506 57.05116506 0 1 0 0-114.10233013A57.05116506 57.05116506 0 1 0 509.61892144 569.05495387z" fill="#FFFFFF" p-id="5565"></path><path d="M463.159 761.73h109.94v90.523h-109.94z" fill="#FFDBB3" p-id="5566"></path><path d="M709.395 876.03c-18.961-16.61-49.3-28.67-84.645-36.406a517.39 517.39 0 0 0-111.533-10.58 565.286 565.286 0 0 0-99.093 9.063c-41.716 7.813-77.402 20.517-99.777 37.924-16.724 12.97-26.546 56.506-32.349 93.48a512.687 512.687 0 0 0 465.586-2.92c-9.064-35.837-22.375-76.832-38.189-90.56z" fill="#FFDBB3" p-id="5567"></path><path d="M709.395 876.03c-18.961-16.61-49.3-28.67-84.645-36.406-8.115-1.782-22.754-4.285-22.754-4.285s-51.158 59.919-80.739 60.109-90.295-60.11-90.295-60.11-12.818 2.087-16.687 2.807c-41.715 7.812-77.401 20.517-99.776 37.924-16.724 12.97-26.547 56.506-32.349 93.48a512.687 512.687 0 0 0 465.586-2.92c-9.216-35.875-22.527-76.87-38.34-90.598z" fill="#BC561C" p-id="5568"></path><path d="M427.549 833.253l63.635 103.114 26.926-40.957-54.951-88.4-35.61 26.243z m93.557 62.157l26.925 40.957 59.881-107.4L573.1 807.01l-51.993 88.4zM511.625 973a6.485 6.485 0 1 0 12.97 0 6.485 6.485 0 1 0-12.97 0zM511.625 921.463a6.485 6.485 0 1 0 12.97 0 6.485 6.485 0 1 0-12.97 0z" fill="#FFFFFF" p-id="5569"></path><path d="M512.724 140.885a288.863 288.863 0 0 0-288.976 288.901c0 159.506 129.433 366.606 288.976 366.606s288.863-206.948 288.863-366.454a288.863 288.863 0 0 0-288.863-289.053z" fill="#FFDBB3" p-id="5570"></path><path d="M717.928 162.843c-109.22-62.346-213.926-92.798-311.162-42.664s-150.67 114.946-163.829 159.847-27.229 92.799-30.566 124.73c-4.096 37.924 0 152.984 0 152.984h37.544s12.098-116.046 23.627-152.983c14.676-47.594 68.944-142.175 104.82-169.632s119.004 32.463 217.036 57.378S736.7 359.476 754.676 404.757C768.973 440.67 777.05 557.74 777.05 557.74h38.91V404.757s11.186-179.568-98.033-241.914z" fill="#603913" p-id="5571"></path><path d="M230.688 508.363a51.045 51.045 0 0 0-36.255 62.422c7.206 27.267 38.682 56.885 65.95 49.528s39.97-48.428 32.765-75.847a51.045 51.045 0 0 0-62.46-36.103z m562.556 0a51.045 51.045 0 0 0-62.422 36.293c-7.205 27.267 5.499 68.452 32.766 75.847s58.705-22.261 65.949-49.528a51.045 51.045 0 0 0-36.293-62.612z" fill="#FFDBB3" p-id="5572"></path><path d="M322.311 506.657a24.423 24.423 0 1 0 48.845 0 24.423 24.423 0 1 0-48.845 0zM647.846 506.657a24.423 24.423 0 1 0 48.845 0 24.423 24.423 0 1 0-48.845 0z" fill="#231F20" p-id="5573"></path><path d="M604.006 630.628a4.02 4.02 0 0 0-4.702 3.224c-0.342 1.782-9.254 44.143-82.067 44.143h-0.19c-61.132 0-81.686-43.195-82.559-45.091a4.02 4.02 0 0 0-7.319 3.337c0.91 2.01 23.361 49.718 89.879 49.793h0.227c79.83 0 89.575-48.655 89.955-50.741a4.02 4.02 0 0 0-3.224-4.665z" fill="#603913" p-id="5574"></path></svg>