<?xml version="1.0" encoding="utf-8"?>
<!-- Generator: Adobe Illustrator 23.1.0, SVG Export Plug-In . SVG Version: 6.00 Build 0)  -->
<svg version="1.1" id="图层_1" xmlns="http://www.w3.org/2000/svg" xmlns:xlink="http://www.w3.org/1999/xlink" x="0px" y="0px"
	 viewBox="0 0 585 263" style="enable-background:new 0 0 585 263;" xml:space="preserve">
<style type="text/css">
	.st0{fill:none;}
	.st1{fill:#FFFFFF;}
</style>
<rect x="-0.03" y="0.45" class="st0" width="585.03" height="262.55"/>
<path class="st1" d="M441.01,89.87c-25.92,0.26-46.84,21.35-46.84,47.31c0,0.15,0.01,39.57,0.01,46.33c0,0.54,0.44,0.98,0.99,0.98
	h14.45c0.54,0,0.99-0.44,0.99-0.99v-46.49c0.09-16.78,13.54-30.39,30.26-30.73c0.02,0,0.07,0,0.15,0c0.55,0,0.99-0.44,0.99-0.99
	V90.86C442,90.32,441.55,89.87,441.01,89.87z"/>
<path class="st1" d="M105.04,121.48c-8.71,0-15.79,7.08-15.79,15.79c0,8.7,7.08,15.79,15.79,15.79c8.71,0,15.79-7.08,15.79-15.79
	C120.83,128.56,113.75,121.48,105.04,121.48z"/>
<path class="st1" d="M447.72,122.04c-4.71,15.13-2.22,30.86,6.84,43.16c8.9,12.08,23.16,19.3,38.15,19.3
	c9.76,0,19.27-3.03,27.2-8.59c0.52-0.37,1.04-0.75,1.55-1.14c0.14-0.11,0.33-0.26,0.54-0.43c0.65-0.52,1.61-0.06,1.61,0.77l0,8.39
	c0,0.55,0.44,0.99,0.99,0.99l14.44,0c0.55,0,0.99-0.44,0.99-0.99l0-46.11c0-0.08,0.01-0.15,0.01-0.22
	c0-14.99-7.22-29.24-19.31-38.14c-12.31-9.05-28.04-11.55-43.18-6.84C463.32,96.64,452.16,107.79,447.72,122.04z M464.18,124.9
	c2.91-7.42,8.83-13.35,16.26-16.25c4.03-1.58,8.17-2.37,12.29-2.37c6.23,0,12.24,1.85,17.37,5.35c8.23,5.61,13.28,14.88,13.52,24.8
	l0,1.11c-0.2,16.84-14.06,30.54-30.91,30.54c-10.22,0-19.77-5.06-25.55-13.53C461.27,145.93,460.18,135.12,464.18,124.9z"/>
<g>
	<polygon class="st0" points="414.68,122.33 414.68,122.33 414.68,122.33 	"/>
</g>
<path class="st1" d="M183.57,122.04c-4.71,15.13-2.22,30.86,6.84,43.16c8.9,12.08,23.16,19.3,38.15,19.3
	c9.77,0,19.3-3.04,27.23-8.62c0.39-0.27,0.77-0.55,1.15-0.83c0.09-0.06,0.47-0.37,0.92-0.72c0.65-0.51,1.61-0.05,1.61,0.78l0,32
	c0,0.55,0.44,0.99,0.99,0.99l14.44,0c0.55,0,0.99-0.44,0.99-0.99v-69.56l0-0.16c0-0.07,0.01-0.14,0.01-0.22
	c0-14.99-7.22-29.24-19.31-38.14c-12.31-9.05-28.04-11.55-43.18-6.84C199.16,96.64,188,107.79,183.57,122.04z M200.02,124.9
	c2.91-7.42,8.83-13.35,16.25-16.25c4.03-1.58,8.17-2.37,12.29-2.37c6.23,0,12.24,1.85,17.37,5.35c8.23,5.61,13.28,14.88,13.52,24.8
	v1.1c-0.19,16.85-14.06,30.55-30.91,30.55c-10.22,0-19.77-5.06-25.55-13.53C197.11,145.93,196.03,135.12,200.02,124.9z"/>
<path class="st1" d="M290.03,122.04c-4.71,15.13-2.22,30.86,6.84,43.16c8.9,12.08,23.16,19.3,38.15,19.3
	c9.76,0,19.27-3.03,27.2-8.59c0.52-0.37,1.04-0.75,1.55-1.14c0.14-0.11,0.33-0.26,0.54-0.43c0.65-0.52,1.61-0.06,1.61,0.77l0,8.39
	c0,0.55,0.44,0.99,0.99,0.99l14.44,0c0.55,0,0.99-0.44,0.99-0.99l0-46.11c0-0.08,0.01-0.15,0.01-0.22
	c0-14.99-7.22-29.24-19.31-38.14c-12.31-9.05-28.04-11.55-43.18-6.84C305.63,96.64,294.47,107.79,290.03,122.04z M306.49,124.9
	c2.91-7.42,8.83-13.35,16.26-16.25c4.03-1.58,8.17-2.37,12.29-2.37c6.23,0,12.24,1.85,17.37,5.35c8.23,5.61,13.28,14.88,13.52,24.8
	l0,1.11c-0.2,16.84-14.06,30.54-30.91,30.54c-10.22,0-19.77-5.06-25.55-13.53C303.58,145.93,302.49,135.12,306.49,124.9z"/>
<path class="st1" d="M182.63,183.02l-35.61-94.66c-4.5-13.35-16.52-21.98-30.63-21.98c-14.1,0-26.12,8.62-30.62,21.94l-34.2,90.46
	l-1.3,3.43c-0.39,1.04,0.37,2.14,1.48,2.14h14.09c0.66,0,1.25-0.41,1.48-1.03l12.38-32.74l0.54-1.42l1.08-2.87
	c0.2-0.52,0.2-1.08,0.03-1.61c-0.74-2.35-1.15-4.85-1.15-7.44c0-8.99,4.81-16.87,11.99-21.22c0.47-0.29,0.84-0.71,1.04-1.22
	l0.64-1.7c0,0,0,0,0-0.01l0.53-1.4l0.4-1.06l6.31-16.68c0.04-0.1,0.07-0.2,0.11-0.31c2.68-8.06,9.59-10.93,15.16-10.93
	c5.57,0,12.48,2.87,15.16,10.94c0.03,0.1,0.07,0.2,0.11,0.3l31.44,83.6l2.18,5.78c0.23,0.62,0.82,1.03,1.48,1.03h14.94
	C182.4,184.36,182.88,183.67,182.63,183.02z"/>
</svg>
